<svg xmlns="http://www.w3.org/2000/svg" id="a" viewBox="0 0 32 32"><defs><style>.b{fill:none;stroke:#000;stroke-linecap:round;stroke-linejoin:round;}</style></defs><polyline class="b" points="23.22 8.1 23.22 21.67 24.63 29.45 16 29.45 7.37 29.45 8.78 21.67 8.78 8.1"></polyline><path class="b" d="M23.22,18.94l2.73,5.38,5.55-2.65L23.58,4.73c-.22-.47-.7-.77-1.22-.77h-1.96l-.66-1.41h-7.49l-.66,1.41h-1.96c-.52,0-1,.3-1.22,.77L.5,21.67l5.55,2.65,2.73-5.38"></path><line class="b" x1="19.75" y1="2.55" x2="9.92" y2="20.28"></line><line class="b" x1="20.41" y1="3.96" x2="11.36" y2="20.28"></line><line class="b" x1="15.27" y1="10.49" x2="11.59" y2="3.96"></line><line class="b" x1="16" y1="9.19" x2="12.25" y2="2.55"></line><line class="b" x1="17.5" y1="20.28" x2="23.22" y2="20.28"></line><line class="b" x1="17.5" y1="21.73" x2="23.22" y2="21.73"></line><line class="b" x1="8.8" y1="20.28" x2="14.53" y2="20.28"></line><line class="b" x1="8.8" y1="21.73" x2="13.92" y2="21.73"></line><rect class="b" x="14.58" y="19.84" width="2.92" height="2.45" rx=".6" ry=".6"></rect><polyline class="b" points="16.47 22.29 11.66 26.57 10.05 24.76 14.58 21.36"></polyline><polyline class="b" points="17.5 21.88 21.63 24.89 20.44 26.57 16 22.88"></polyline></svg>