<svg width="156" height="46" viewBox="0 0 156 46" fill="none" xmlns="http://www.w3.org/2000/svg">
<g clip-path="url(#clip0_37_15)">
<mask id="mask0_37_15" style="mask-type:luminance" maskUnits="userSpaceOnUse" x="0" y="0" width="156" height="46">
<path d="M156 0.5H0V45.5H156V0.5Z" fill="white"/>
</mask>
<g mask="url(#mask0_37_15)">
<path d="M10.4883 35.8284C10.515 36.9904 11.0608 37.5304 12.4499 37.5304C13.8391 37.5304 14.4384 36.9904 14.4384 36.017V32.9378H1.19874V25.2379H24.9282V36.3682C24.9282 41.906 21.3319 45.4986 12.4782 45.4986C3.62447 45.4986 0.1636 42.0963 0 35.8284H10.4883Z" fill="#46BFB3"/>
<path d="M26.8899 25.2379H37.4601V35.3963C37.4601 36.7473 38.1143 37.3961 39.6671 37.3961C41.2199 37.3961 41.9278 36.7473 41.9278 35.3963V25.2379H52.4709V36.1248C52.4709 41.6626 48.5759 45.4986 39.6657 45.4986C30.7554 45.4986 26.8884 41.6626 26.8884 36.1248V25.2379H26.8899Z" fill="#46BFB3"/>
<path d="M67.5921 25.2379C76.9367 25.2379 81.2957 29.5605 81.2957 34.6397V35.5585C81.2957 40.6375 76.9367 44.9603 67.5921 44.9603H54.5146V25.2379H67.5921ZM70.5339 34.9907C70.5339 33.7755 69.5254 32.7756 67.1829 32.7756H65.0308V37.4227H67.1829C69.5254 37.4227 70.5339 36.4227 70.5339 35.2075V34.9907Z" fill="#46BFB3"/>
<path d="M82.4412 35.6116V34.5851C82.4412 28.9928 86.7733 24.6982 96.417 24.6982C106.06 24.6982 110.421 28.9943 110.421 34.5851V35.6116C110.421 41.2041 106.089 45.4986 96.417 45.4986C86.7453 45.4986 82.4412 41.2023 82.4412 35.6116ZM99.6593 35.206V34.9893C99.6593 33.5572 98.6239 32.5308 96.417 32.5308C94.2097 32.5308 93.2016 33.5572 93.2016 34.9893V35.206C93.2016 36.6382 94.2097 37.6643 96.417 37.6643C98.6239 37.6643 99.6593 36.6382 99.6593 35.206Z" fill="#46BFB3"/>
<path d="M52.9084 20.762H42.7458L42.0096 18.6826H35.8522L35.116 20.762H24.9535L32.8018 1.03976H45.0346L52.9084 20.7605V20.762ZM38.9323 8.19982L37.515 12.6301H40.3481L38.9308 8.19982H38.9323Z" fill="#46BFB3"/>
<path d="M64.5653 1.03976H75.2454L67.6172 20.7605H55.4112L47.5642 1.03976H58.2443L61.4597 10.5491L64.5653 1.03976Z" fill="#46BFB3"/>
<path d="M86.973 20.762H76.3213V1.03976H86.973V20.762Z" fill="#46BFB3"/>
<path d="M104.673 1.03976H114.426V20.762H104.646L98.1897 12.3056V20.762H88.4363V1.03976H98.7893L104.674 9.03601V1.03976H104.673Z" fill="#46BFB3"/>
<path d="M115.979 10.3869C115.979 4.79456 120.311 0.5 129.928 0.5C139.545 0.5 143.304 4.12059 143.822 10.0359H132.952C132.706 9.14517 131.916 8.33404 129.9 8.33404C127.748 8.33404 126.739 9.3605 126.739 10.7925V11.0093C126.739 12.4413 127.748 13.4678 129.9 13.4678C131.916 13.4678 132.706 12.6566 132.952 11.7658H143.822C143.304 17.6827 139.328 21.3018 129.928 21.3018C120.528 21.3018 115.979 17.0058 115.979 11.4148V10.3884V10.3869Z" fill="#46BFB3"/>
<path d="M156 20.762H145.348V1.03976H156V20.762Z" fill="#46BFB3"/>
<path d="M20.8575 10.9473H17.3951V11.5682H20.8575V10.9473Z" fill="#46BFB3"/>
<path d="M5.62183 10.6892C5.83004 10.6967 6.0323 10.6996 6.22714 10.6996H6.74919C6.93657 10.6996 7.06 10.6775 7.1195 10.6317C7.17899 10.5875 7.20876 10.5064 7.20876 10.3884V9.66428C6.95145 9.86486 6.69116 10.0492 6.42643 10.2174C6.16169 10.3869 5.89398 10.5433 5.6233 10.6878L5.62183 10.6892Z" fill="#46BFB3"/>
<path d="M20.8575 9.61417H17.3951V10.2454H20.8575V9.61417Z" fill="#46BFB3"/>
<path d="M20.8575 12.2717H17.3951V12.9235H20.8575V12.2717Z" fill="#46BFB3"/>
<path d="M9.21958 7.45212H5.83008C6.33724 7.67921 6.85182 7.93142 7.37387 8.2072C7.69365 8.08332 8.00447 7.95941 8.30639 7.83554C8.60831 7.71167 8.91321 7.58336 9.21958 7.45357V7.45212Z" fill="#46BFB3"/>
<path d="M13.0776 1.03976H0V20.762H13.0776C22.4221 20.762 26.7813 16.4394 26.7813 11.3603V10.4415C26.7813 5.36234 22.4221 1.03976 13.0776 1.03976ZM15.7487 7.16305H17.178C17.0114 6.92856 16.8092 6.68818 16.5727 6.43894L17.8026 6.07763C18.1432 6.44337 18.4288 6.80468 18.6578 7.16305H19.6484C19.9547 6.80468 20.2016 6.45368 20.389 6.1086L21.6502 6.35635C21.4971 6.62475 21.3171 6.89316 21.1074 7.16305H22.5991V8.16592H19.7941C19.7599 8.24259 19.7197 8.3355 19.6736 8.44463C19.629 8.55525 19.5844 8.66584 19.5427 8.77497H22.0875V13.7583H16.1548V8.77646H18.2087C18.2429 8.69387 18.2831 8.59947 18.3291 8.49183C18.3738 8.38564 18.4213 8.2765 18.4704 8.16592H15.7487V7.16305ZM13.9863 6.43894C14.2778 6.72209 14.5827 7.04506 14.898 7.4108C15.2148 7.77658 15.5108 8.15263 15.7889 8.53754L14.8816 9.33393C14.6169 8.96819 14.3299 8.61425 14.022 8.26913C13.7127 7.92405 13.381 7.59371 13.0255 7.27662L13.9848 6.43894H13.9863ZM11.9428 15.59C11.1784 15.3761 10.4897 15.1165 9.87846 14.8098C9.26719 14.503 8.68271 14.1506 8.12645 13.7494V15.6209H6.75071V13.7494C6.19449 14.1491 5.60998 14.503 4.99871 14.8098C4.38744 15.1165 3.69885 15.3761 2.93439 15.59L2.46441 14.5458C3.21548 14.3674 3.88325 14.1491 4.46626 13.894C5.05078 13.6388 5.60703 13.3321 6.135 12.9737H2.8273V12.0018H6.74777V11.5992C6.56631 11.5992 6.3804 11.5963 6.19004 11.5889C5.99818 11.5815 5.77806 11.5756 5.52817 11.5682L5.50737 10.7512C5.16679 10.9237 4.82323 11.0845 4.47519 11.232C4.12719 11.3809 3.77323 11.5195 3.4118 11.6508L2.71279 10.6377C3.28241 10.4783 3.81784 10.3132 4.31905 10.1406C4.81875 9.96808 5.27535 9.78964 5.68435 9.60234H2.94183V8.60982H5.99668C5.77358 8.50657 5.55199 8.40481 5.32889 8.30453C5.10579 8.20425 4.87975 8.10249 4.6507 7.99927L5.1192 7.44032H3.70032V6.39617L11.3955 6.41683L11.4059 7.43001C11.0103 7.63056 10.6042 7.82817 10.1908 8.02432C9.77733 8.22048 9.35792 8.41515 8.93403 8.60833H12.0826V9.51829C11.7911 9.76604 11.4505 10.0374 11.0608 10.3294C10.6712 10.6229 10.2577 10.9208 9.82047 11.2231L8.87159 10.468C9.21218 10.2749 9.49176 10.1112 9.71041 9.97694C9.92902 9.84275 10.1253 9.71739 10.2994 9.5994H8.5994V10.3132C8.5994 10.6096 8.58007 10.8515 8.54141 11.0373C8.50275 11.2231 8.36293 11.3647 8.11903 11.4606V11.9989H12.0499V12.9707H8.73327C9.26124 13.3291 9.81749 13.6359 10.402 13.891C10.9865 14.1461 11.6528 14.3629 12.4039 14.5429L11.9354 15.587L11.9428 15.59ZM22.6303 15.559H17.8547C17.1393 15.559 16.5281 15.4735 16.0254 15.3009C15.5212 15.1283 15.1226 14.9012 14.8311 14.6181C14.6853 14.8245 14.5202 15.0192 14.3358 15.2021C14.1514 15.3849 13.9342 15.559 13.6844 15.7241L12.9437 14.6594C13.2709 14.4455 13.5327 14.2199 13.7305 13.9824C13.9283 13.745 14.0859 13.4943 14.2049 13.2333V11.4134H13.1207V10.1937H15.4676V13.0887C15.4676 13.3571 15.542 13.596 15.6922 13.8025C15.8409 14.009 16.1012 14.1697 16.4686 14.2833C16.8374 14.3969 17.3476 14.4544 18.0019 14.4544H22.6526L22.6318 15.5604L22.6303 15.559Z" fill="#46BFB3"/>
</g>
</g>
<defs>
<clipPath id="clip0_37_15">
<rect width="156" height="45" fill="white" transform="translate(0 0.5)"/>
</clipPath>
</defs>
</svg>
