<svg xmlns="http://www.w3.org/2000/svg" width="435" height="127" viewBox="0 0 435 127" fill="none"><g clip-path="url(#clip0_108_214)"><path d="M29.2461 99.7045C29.3207 102.984 30.8427 104.508 34.7162 104.508C38.5897 104.508 40.261 102.984 40.261 100.237V91.5467H3.34264V69.816H69.5112V101.228C69.5112 116.857 59.4833 126.996 34.795 126.996C10.1067 126.996 0.456192 117.394 0 99.7045H29.2461Z" fill="white"></path><path d="M74.9814 69.816H104.456V98.485C104.456 102.298 106.28 104.129 110.61 104.129C114.94 104.129 116.914 102.298 116.914 98.485V69.816H146.313V100.541C146.313 116.17 135.452 126.996 110.606 126.996C85.76 126.996 74.9772 116.17 74.9772 100.541V69.816H74.9814Z" fill="white"></path><path d="M188.478 69.816C214.535 69.816 226.69 82.0153 226.69 96.3498V98.9428C226.69 113.277 214.535 125.477 188.478 125.477H152.012V69.816H188.478ZM196.681 97.3404C196.681 93.9108 193.869 91.0888 187.337 91.0888H181.336V104.204H187.337C193.869 104.204 196.681 101.382 196.681 97.9522V97.3404V97.3404Z" fill="white"></path><path d="M229.884 99.0927V96.1958C229.884 80.4129 241.964 68.2927 268.855 68.2927C295.745 68.2927 307.905 80.4171 307.905 96.1958V99.0927C307.905 114.876 295.824 126.996 268.855 126.996C241.886 126.996 229.884 114.871 229.884 99.0927V99.0927ZM277.896 97.9481V97.3363C277.896 93.2948 275.009 90.398 268.855 90.398C262.7 90.398 259.889 93.2948 259.889 97.3363V97.9481C259.889 101.99 262.7 104.886 268.855 104.886C275.009 104.886 277.896 101.99 277.896 97.9481V97.9481Z" fill="white"></path><path d="M147.533 57.1839H119.195L117.142 51.3152H99.9724L97.9196 57.1839H69.5817L91.4665 1.52332H125.577L147.533 57.1797V57.1839ZM108.561 21.7306L104.609 34.2337H112.509L108.557 21.7306H108.561Z" fill="white"></path><path d="M180.038 1.52332H209.819L188.548 57.1797H154.512L132.631 1.52332H162.412L171.378 28.3609L180.038 1.52332Z" fill="white"></path><path d="M242.521 57.1839H212.819V1.52332H242.521V57.1839Z" fill="white"></path><path d="M291.876 1.52332H319.073V57.1839H291.801L273.798 33.3181V57.1839H246.601V1.52332H275.47L291.88 24.0905V1.52332H291.876Z" fill="white"></path><path d="M323.403 27.9031C323.403 12.1202 335.484 0 362.3 0C389.115 0 399.599 10.2181 401.043 26.9125H370.731C370.046 24.3986 367.844 22.1094 362.221 22.1094C356.22 22.1094 353.408 25.0063 353.408 29.0477V29.6596C353.408 33.701 356.22 36.5979 362.221 36.5979C367.844 36.5979 370.046 34.3087 370.731 31.7947H401.043C399.599 48.4933 388.51 58.7073 362.3 58.7073C336.089 58.7073 323.403 46.5829 323.403 30.8041V27.9073V27.9031Z" fill="white"></path><path d="M435 57.1839H405.298V1.52332H435V57.1839Z" fill="white"></path><path d="M58.1604 29.4847H48.5057V31.237H58.1604V29.4847Z" fill="white"></path><path d="M15.6764 28.7563C16.257 28.7772 16.821 28.7855 17.3643 28.7855H18.82C19.3425 28.7855 19.6867 28.7231 19.8526 28.594C20.0185 28.4692 20.1015 28.2402 20.1015 27.9073V25.8636C19.384 26.4297 18.6582 26.95 17.92 27.4245C17.1818 27.9031 16.4353 28.3443 15.6805 28.7522L15.6764 28.7563Z" fill="white"></path><path d="M58.1604 25.7222H48.5057V27.5036H58.1604V25.7222Z" fill="white"></path><path d="M58.1604 33.2223H48.5057V35.062H58.1604V33.2223Z" fill="white"></path><path d="M25.7085 19.6204H16.257C17.6712 20.2613 19.1061 20.9731 20.5618 21.7514C21.4535 21.4018 22.3202 21.0521 23.1621 20.7025C24.004 20.3529 24.8542 19.9908 25.7085 19.6245V19.6204Z" fill="white"></path><path d="M36.4663 1.52332H0V57.1839H36.4663C62.5232 57.1839 74.6787 44.9846 74.6787 30.6501V28.0571C74.6787 13.7226 62.5232 1.52332 36.4663 1.52332V1.52332ZM43.9147 18.8046H47.9002C47.4357 18.1428 46.8717 17.4644 46.2123 16.761L49.642 15.7413C50.5917 16.7735 51.388 17.7932 52.0266 18.8046H54.7887C55.643 17.7932 56.3314 16.8026 56.854 15.8287L60.3708 16.5279C59.9437 17.2854 59.4418 18.0429 58.8571 18.8046H63.0167V21.6349H55.1951C55.0997 21.8513 54.9877 22.1135 54.8592 22.4215C54.7348 22.7337 54.6104 23.0458 54.4942 23.3538H61.5901V37.4178H45.0469V23.358H50.7742C50.8696 23.1249 50.9816 22.8585 51.1101 22.5547C51.2345 22.255 51.3672 21.947 51.5041 21.6349H43.9147V18.8046V18.8046ZM39.0003 16.761C39.8131 17.5601 40.6633 18.4716 41.5425 19.5038C42.4259 20.5361 43.2512 21.5974 44.0267 22.6837L41.4969 24.9313C40.7587 23.8991 39.9583 22.9002 39.0998 21.9262C38.2372 20.9523 37.3124 20.02 36.3212 19.1251L38.9961 16.761H39.0003ZM33.302 42.5872C31.1704 41.9837 29.2502 41.2511 27.5457 40.3854C25.8412 39.5197 24.2114 38.5249 22.6603 37.3928V42.6746H18.8241V37.3928C17.2731 38.5208 15.6432 39.5197 13.9387 40.3854C12.2342 41.2511 10.3141 41.9837 8.18243 42.5872L6.87191 39.6404C8.96625 39.1368 10.8283 38.5208 12.454 37.8007C14.0839 37.0807 15.635 36.2149 17.1072 35.2035H7.88383V32.4607H18.8159V31.3244C18.3099 31.3244 17.7915 31.3161 17.2607 31.2952C16.7257 31.2744 16.1119 31.2578 15.4151 31.237L15.3571 28.9311C14.4074 29.4181 13.4494 29.8718 12.4789 30.288C11.5085 30.7084 10.5215 31.0996 9.51368 31.4701L7.5645 28.6107C9.15287 28.1611 10.6459 27.695 12.0435 27.208C13.4369 26.721 14.7101 26.2174 15.8506 25.6888H8.20317V22.8877H16.7215C16.0994 22.5963 15.4815 22.3091 14.8594 22.0261C14.2373 21.7431 13.607 21.4559 12.9683 21.1646L14.2747 19.5871H10.3182V16.6403L31.7759 16.6986L31.8049 19.558C30.7017 20.124 29.5695 20.6817 28.4166 21.2353C27.2637 21.7889 26.0942 22.3383 24.9122 22.8835H33.6919V25.4516C32.879 26.1508 31.9293 26.9167 30.8427 27.7408C29.7562 28.569 28.6033 29.4098 27.384 30.263L24.7381 28.132C25.6878 27.5868 26.4674 27.1248 27.0771 26.746C27.6867 26.3673 28.2341 26.0135 28.7194 25.6805H23.9791V27.695C23.9791 28.5316 23.9252 29.2142 23.8174 29.7386C23.7096 30.263 23.3197 30.6626 22.6396 30.9331V32.4523H33.6006V35.1952H24.3524C25.8246 36.2066 27.3757 37.0723 29.0055 37.7924C30.6354 38.5124 32.4933 39.1243 34.5877 39.6321L33.2813 42.5789L33.302 42.5872ZM63.1038 42.4998H49.7872C47.7924 42.4998 46.0879 42.2584 44.6861 41.7714C43.2802 41.2844 42.1687 40.6435 41.3559 39.8443C40.9495 40.427 40.4891 40.9764 39.9749 41.4925C39.4606 42.0086 38.8551 42.4998 38.1584 42.9659L36.0931 39.9609C37.0055 39.3574 37.7354 38.7205 38.287 38.0504C38.8385 37.3803 39.2781 36.6728 39.6099 35.9361V30.8H36.5866V27.3578H43.1309V35.5282C43.1309 36.2857 43.3383 36.9599 43.7571 37.5426C44.1718 38.1254 44.8976 38.579 45.922 38.8995C46.9505 39.22 48.373 39.3823 50.1977 39.3823H63.166L63.108 42.5039L63.1038 42.4998Z" fill="white"></path></g><defs><clipPath id="clip0_108_214"><rect width="435" height="127" fill="white"></rect></clipPath></defs></svg>