<svg width="50" height="51" viewBox="0 0 50 51" fill="none" xmlns="http://www.w3.org/2000/svg">
<circle cx="25" cy="25.7499" r="25" fill="#1393E2"/>
<g clip-path="url(#clip0_209_3)">
<path d="M31.4101 19.3946L18.0873 24.6365C18.0873 24.6365 17.4552 24.8512 17.505 25.2506C17.5548 25.65 18.0674 25.8347 18.0674 25.8347L21.4167 26.968L21.4217 26.973V26.968L29.4642 21.8408C29.4642 21.8408 29.927 21.5563 29.9121 21.8408C29.9121 21.8408 29.9967 21.8908 29.7479 22.1254C29.499 22.36 23.4274 27.8316 23.4274 27.8316L23.4174 27.9365L28.8819 32.14C29.7926 32.5394 30.1261 31.7057 30.1261 31.7057L32.5 19.7091C32.5 18.9104 31.4051 19.3946 31.4101 19.3946Z" fill="white"/>
<path d="M25.5077 29.544L23.3429 31.526C23.3429 31.526 23.1736 31.6558 22.9895 31.5759L23.4026 27.8966" fill="white"/>
</g>
<defs>
<clipPath id="clip0_209_3">
<rect width="15" height="13" fill="white" transform="translate(17.5 19.2499)"/>
</clipPath>
</defs>
</svg>
