<svg width="50" height="51" viewBox="0 0 50 51" fill="none" xmlns="http://www.w3.org/2000/svg">
<circle cx="25" cy="25.6836" r="25" fill="#416794"/>
<g clip-path="url(#clip0_209_5)">
<path d="M16.083 22.196C15.9301 21.8138 15.7348 21.4152 16.1977 21.1997C17.1363 21.1875 18.0749 21.1753 19.0178 21.1631C19.4255 21.1753 19.6124 21.464 19.829 21.8666C20.4618 23.0338 21.1201 24.1969 21.9143 25.2664C22.1734 25.6161 22.6108 25.7503 22.9548 25.1932C22.993 24.4409 23.0313 23.6885 23.0695 22.9362C22.9421 22.0618 22.6235 21.5454 22.0672 21.4925C21.7486 21.1956 21.978 20.9516 22.6915 20.8215C23.8255 20.5897 24.815 20.6954 25.6857 20.8012C26.4204 20.8459 26.5266 21.3217 26.5139 21.8666C26.4884 22.863 26.4672 23.8634 26.4672 24.8597C26.6838 25.8723 27.2614 25.4657 27.6436 25.0265C28.3274 24.0952 28.922 23.1883 29.4189 22.1676C29.9328 21.1184 30.0729 21.1956 30.434 21.1916C31.2961 21.1875 32.2475 21.1468 32.9355 21.1712C34.371 21.0899 34.2054 21.6999 33.8019 22.3465C33.1054 23.473 32.2092 24.4897 31.4108 25.5633C30.9266 26.1936 30.9351 26.5881 31.449 26.9297C32.2092 27.7308 33.0332 28.4791 33.7255 29.3331C34.4772 30.2644 33.9251 30.5206 33.2243 30.5897C32.3876 30.5897 31.5509 30.5897 30.7143 30.5897C30.0007 30.6019 29.3552 30.4311 28.9008 29.7032C27.8517 28.3734 27.0703 28.0074 26.756 28.7556C26.6201 29.085 26.5054 29.5283 26.5096 29.9594C26.5139 30.5612 26.1359 30.61 25.622 30.6263C25.0699 30.6263 24.4965 30.7564 23.9614 30.6263C22.0672 30.1668 20.2494 29.3209 18.4784 26.4132C17.6799 25.1566 16.8815 23.7821 16.083 22.196Z" fill="white"/>
</g>
<defs>
<clipPath id="clip0_209_5">
<rect width="18.1818" height="10" fill="white" transform="translate(15.9092 20.6836)"/>
</clipPath>
</defs>
</svg>
