<svg width="50" height="51" viewBox="0 0 50 51" fill="none" xmlns="http://www.w3.org/2000/svg">
<circle cx="25" cy="25.75" r="25" fill="#33CE62"/>
<g clip-path="url(#clip0_209_4)">
<path d="M30.664 20.0744C29.16 18.5779 27.16 17.75 25.032 17.75C20.648 17.75 17.064 21.3003 17.064 25.6784C17.064 27.0794 17.432 28.4326 18.12 29.6426L17 33.75L21.224 32.6515C22.392 33.2884 23.704 33.6227 25.032 33.6227C29.416 33.6227 33 30.0724 33 25.6943C33 23.561 32.168 21.5709 30.664 20.0744ZM25.032 32.2694C23.848 32.2694 22.68 31.951 21.656 31.3461L21.416 31.2028L18.92 31.8714L19.592 29.4356L19.432 29.1809C18.776 28.1301 18.424 26.9202 18.424 25.6784C18.408 22.0486 21.384 19.0874 25.032 19.0874C26.808 19.0874 28.456 19.7719 29.72 21.0137C30.968 22.2555 31.656 23.9112 31.656 25.6784C31.656 29.3083 28.68 32.2694 25.032 32.2694ZM28.664 27.3341C28.472 27.2386 27.48 26.761 27.304 26.6973C27.128 26.6336 26.984 26.6018 26.856 26.7928C26.728 26.9839 26.344 27.4296 26.232 27.5729C26.12 27.7003 25.992 27.7162 25.8 27.6207C25.608 27.5252 24.952 27.3182 24.2 26.6336C23.608 26.1083 23.208 25.4555 23.096 25.2645C22.984 25.0734 23.08 24.962 23.176 24.8665C23.272 24.7709 23.368 24.6277 23.48 24.5162C23.576 24.4048 23.608 24.3252 23.672 24.1819C23.736 24.0545 23.704 23.9272 23.656 23.8316C23.608 23.7361 23.208 22.765 23.048 22.367C22.888 21.9849 22.728 22.0326 22.6 22.0326C22.488 22.0326 22.344 22.0326 22.216 22.0326C22.088 22.0326 21.864 22.0804 21.688 22.2874C21.512 22.4784 20.984 22.9719 20.984 23.9431C20.984 24.9142 21.704 25.8535 21.8 25.9968C21.896 26.1242 23.208 28.1301 25.208 28.9898C25.688 29.1968 26.056 29.3083 26.344 29.4038C26.824 29.5471 27.256 29.5311 27.592 29.4834C27.976 29.4197 28.776 29.0058 28.936 28.5441C29.096 28.0824 29.096 27.6844 29.048 27.6048C29 27.4774 28.872 27.4296 28.664 27.3341Z" fill="white"/>
</g>
<defs>
<clipPath id="clip0_209_4">
<rect width="16" height="16" fill="white" transform="translate(17 17.75)"/>
</clipPath>
</defs>
</svg>
